<svg xmlns="http://www.w3.org/2000/svg" fill="none" width="32" height="32"><defs><clipPath id="a"><rect width="32" height="32" rx="16"/></clipPath><filter id="b" filterUnits="objectBoundingBox" color-interpolation-filters="sRGB" x="-20" y="-16" width="66" height="82"><feFlood flood-opacity="0" result="BackgroundImageFix"/><feColorMatrix in="SourceAlpha" values="0 0 0 0 0 0 0 0 0 0 0 0 0 0 0 0 0 0 127 0"/><feOffset dy="4"/><feGaussianBlur stdDeviation="5"/><feColorMatrix values="0 0 0 0 0.14528024196624756 0 0 0 0 0.11209439486265182 0 0 0 0 0.3333333432674408 0 0 0 0.20000000298023224 0"/><feBlend in2="BackgroundImageFix" result="effect1_dropShadow"/><feBlend in="SourceGraphic" in2="effect1_dropShadow" result="shape"/></filter></defs><g clip-path="url(#a)"><circle cx="16" cy="16" fill="#615CED" r="16"/><g filter="url(#b)"><path d="M19.753 18.681q.262-.21.5-.448.236-.238.445-.501.21-.263.387-.548.179-.285.324-.588.146-.303.256-.62.11-.317.185-.645.075-.327.112-.661Q22 14.336 22 14q0-.147-.007-.294-.008-.148-.022-.294-.014-.147-.036-.292-.022-.146-.05-.29-.029-.145-.065-.288-.036-.143-.078-.284-.043-.14-.093-.28-.05-.138-.106-.274-.056-.136-.12-.27-.062-.132-.131-.262-.07-.13-.146-.257-.075-.126-.157-.248-.082-.123-.17-.241-.087-.118-.18-.232-.094-.114-.193-.223-.1-.11-.203-.214-.104-.104-.214-.203-.109-.099-.223-.192-.114-.094-.232-.181-.118-.088-.24-.17-.123-.082-.25-.157-.126-.076-.256-.146-.13-.069-.263-.132t-.269-.12q-.136-.056-.275-.105-.138-.05-.28-.093-.14-.042-.283-.078-.143-.036-.287-.065-.145-.028-.29-.05-.146-.022-.293-.036-.147-.015-.294-.022Q16.147 8 16 8t-.294.007q-.147.007-.294.022-.147.014-.292.036-.146.022-.29.05-.145.029-.288.065-.143.036-.284.078-.14.043-.28.093-.138.05-.274.106-.136.056-.27.12-.132.062-.262.131-.13.07-.257.146-.126.075-.248.157-.123.082-.241.17-.119.088-.232.18-.114.094-.223.193-.11.1-.214.203-.104.105-.203.214-.099.109-.192.223-.094.114-.181.232-.088.118-.17.24-.082.123-.157.25-.076.126-.146.256-.069.13-.132.263t-.12.269q-.056.136-.105.275-.05.138-.093.28-.042.14-.078.283-.036.143-.065.287-.028.145-.05.29-.022.146-.036.293-.015.146-.022.294Q10 13.853 10 14q0 .336.038.67.037.334.112.661.074.328.185.645.11.317.256.62.145.303.323.588.179.285.388.548.209.263.446.501.237.238.499.448-.249.092-.494.197-.245.104-.487.22-.242.117-.48.245t-.471.268q-.234.14-.462.29-.229.152-.453.314-.223.162-.442.335-.218.174-.43.357-.213.184-.42.378-.205.194-.405.398-.2.204-.393.417-.193.214-.38.437-.185.223-.364.455-.178.231-.35.472-.17.24-.333.489t-.318.505q-.155.257-.301.52-.147.264-.285.535-.137.271-.266.549-.129.277-.249.56-.12.284-.23.573-.11.29-.211.584-.101.294-.192.593-.092.3-.173.603-.082.303-.153.61-.072.307-.134.618-.061.31-.113.623-.051.314-.092.629-.042.316-.073.633-.03.317-.052.635-.02.319-.03.638Q3 33.681 3 34q0 .393.016.785.015.392.047.783.03.391.078.78.047.388.109.773.062.386.14.767.077.38.17.757.092.375.2.745.107.37.23.733.122.363.258.718.137.355.287.701.15.347.315.684.164.337.34.663.178.327.368.642.19.316.393.62.202.303.417.594.214.291.44.569.225.277.462.541.236.264.483.513.247.25.503.483.256.234.522.453.265.218.539.42.273.202.555.387.281.185.57.353.288.168.583.318t.595.283q.3.132.606.246.306.114.615.21.31.095.623.172.313.076.628.134.316.058.634.096.317.038.636.058.319.019.638.019.32 0 .638-.02.319-.018.636-.057.318-.038.633-.096.316-.058.63-.134.312-.077.622-.172.31-.096.615-.21.305-.114.606-.246.3-.133.595-.283.295-.15.583-.318.289-.168.57-.353.282-.185.555-.387.274-.202.54-.42.265-.219.521-.453t.503-.483q.247-.249.483-.513.237-.264.462-.541.226-.278.44-.57.215-.29.417-.594.203-.303.393-.619.19-.315.367-.642t.341-.663q.165-.337.315-.684.15-.346.287-.701.136-.355.258-.718.123-.363.23-.733.108-.37.2-.745.093-.376.17-.757.078-.381.14-.767.063-.385.11-.773.046-.389.077-.78.032-.39.047-.783Q29 34.393 29 34q0-.32-.01-.639-.01-.32-.031-.638-.021-.318-.052-.635-.031-.318-.073-.633-.04-.315-.092-.629-.052-.313-.113-.623-.062-.31-.134-.618-.071-.307-.153-.61-.081-.304-.173-.603-.091-.299-.192-.593-.1-.294-.211-.584-.11-.289-.23-.572-.12-.284-.249-.561-.129-.278-.266-.549-.138-.27-.285-.535-.146-.263-.3-.52-.155-.256-.319-.505-.163-.249-.334-.49-.17-.24-.35-.471-.178-.232-.364-.455t-.379-.437q-.193-.213-.393-.417t-.406-.398q-.206-.194-.419-.378-.212-.183-.43-.357-.219-.173-.442-.335-.224-.162-.453-.313-.228-.151-.462-.291-.233-.14-.471-.268-.238-.128-.48-.244-.242-.117-.487-.221-.245-.105-.494-.197Z" fill-rule="evenodd" fill="#FFF"/></g></g></svg>